<svg preserveAspectRatio="none" overflow="visible" style="display: block;" width="103.338" height="58.112" viewBox="0 0 103.338 58.112" fill="none" xmlns="http://www.w3.org/2000/svg">
<g id="Group">
<path id="Vector" opacity="0.3" d="M51.6693 57.6427C79.9463 57.6427 102.869 46.9453 102.869 33.7493C102.869 20.5534 79.9463 9.856 51.6693 9.856C23.3924 9.856 0.469333 20.5534 0.469333 33.7493C0.469333 46.9453 23.3924 57.6427 51.6693 57.6427Z" stroke="#EAE7DE" stroke-width="0.938667" stroke-linecap="round" stroke-linejoin="round"/>
<path id="Vector_2" opacity="0.3" d="M0.469333 24.3627V33.7493M102.869 24.3627V33.7493" stroke="#EAE7DE" stroke-width="0.938667" stroke-linecap="round" stroke-linejoin="round"/>
<path id="Vector_3" opacity="0.4" d="M0.469333 33.7493C0.469333 40.0862 5.8636 46.1636 15.4655 50.6445C25.0673 55.1253 38.0902 57.6427 51.6693 57.6427C65.2484 57.6427 78.2713 55.1253 87.8732 50.6445C97.4751 46.1636 102.869 40.0862 102.869 33.7493" stroke="#EAE7DE" stroke-width="0.938667" stroke-linecap="round" stroke-linejoin="round"/>
<path id="Vector_4" d="M51.6693 48.256C79.9463 48.256 102.869 37.5586 102.869 24.3627C102.869 11.1667 79.9463 0.469333 51.6693 0.469333C23.3924 0.469333 0.469333 11.1667 0.469333 24.3627C0.469333 37.5586 23.3924 48.256 51.6693 48.256Z" stroke="#EAE7DE" stroke-width="0.938667" stroke-linecap="round" stroke-linejoin="round"/>
<path id="Vector_5" opacity="0.5" d="M51.6693 43.136C74.2909 43.136 92.6293 34.7309 92.6293 24.3627C92.6293 13.9944 74.2909 5.58933 51.6693 5.58933C29.0477 5.58933 10.7093 13.9944 10.7093 24.3627C10.7093 34.7309 29.0477 43.136 51.6693 43.136Z" stroke="#EAE7DE" stroke-width="0.938667" stroke-linecap="round" stroke-linejoin="round"/>
<path id="Vector_6" opacity="0.85" d="M51.6693 5.41867L52.4373 7.38137L54.2293 8.14937L52.4373 8.91737L51.6693 10.8801L50.9013 8.91737L49.1093 8.14937L50.9013 7.38137L51.6693 5.41867Z" stroke="#EAE7DE" stroke-width="0.938667" stroke-linecap="round" stroke-linejoin="round"/>
<path id="Vector_7" opacity="0.85" d="M68.736 7.552L69.504 9.5147L71.296 10.2827L69.504 11.0507L68.736 13.0134L67.968 11.0507L66.176 10.2827L67.968 9.5147L68.736 7.552Z" stroke="#EAE7DE" stroke-width="0.938667" stroke-linecap="round" stroke-linejoin="round"/>
<path id="Vector_8" opacity="0.85" d="M81.1947 13.5253L81.9627 15.488L83.7547 16.256L81.9627 17.024L81.1947 18.9867L80.4267 17.024L78.6347 16.256L80.4267 15.488L81.1947 13.5253Z" stroke="#EAE7DE" stroke-width="0.938667" stroke-linecap="round" stroke-linejoin="round"/>
<path id="Vector_9" opacity="0.85" d="M85.8027 21.632L86.5707 23.5947L88.3627 24.3627L86.5707 25.1307L85.8027 27.0934L85.0347 25.1307L83.2427 24.3627L85.0347 23.5947L85.8027 21.632Z" stroke="#EAE7DE" stroke-width="0.938667" stroke-linecap="round" stroke-linejoin="round"/>
<path id="Vector_10" opacity="0.85" d="M81.1947 29.7387L81.9627 31.7014L83.7547 32.4694L81.9627 33.2374L81.1947 35.2001L80.4267 33.2374L78.6347 32.4694L80.4267 31.7014L81.1947 29.7387Z" stroke="#EAE7DE" stroke-width="0.938667" stroke-linecap="round" stroke-linejoin="round"/>
<path id="Vector_11" opacity="0.85" d="M68.736 35.712L69.504 37.6747L71.296 38.4427L69.504 39.2107L68.736 41.1734L67.968 39.2107L66.176 38.4427L67.968 37.6747L68.736 35.712Z" stroke="#EAE7DE" stroke-width="0.938667" stroke-linecap="round" stroke-linejoin="round"/>
<path id="Vector_12" opacity="0.85" d="M51.6693 37.8453L52.4373 39.808L54.2293 40.576L52.4373 41.344L51.6693 43.3067L50.9013 41.344L49.1093 40.576L50.9013 39.808L51.6693 37.8453Z" stroke="#EAE7DE" stroke-width="0.938667" stroke-linecap="round" stroke-linejoin="round"/>
<path id="Vector_13" opacity="0.85" d="M34.6027 35.712L35.3707 37.6747L37.1627 38.4427L35.3707 39.2107L34.6027 41.1734L33.8347 39.2107L32.0427 38.4427L33.8347 37.6747L34.6027 35.712Z" stroke="#EAE7DE" stroke-width="0.938667" stroke-linecap="round" stroke-linejoin="round"/>
<path id="Vector_14" opacity="0.85" d="M22.144 29.7387L22.912 31.7014L24.704 32.4694L22.912 33.2374L22.144 35.2001L21.376 33.2374L19.584 32.4694L21.376 31.7014L22.144 29.7387Z" stroke="#EAE7DE" stroke-width="0.938667" stroke-linecap="round" stroke-linejoin="round"/>
<path id="Vector_15" opacity="0.85" d="M17.536 21.632L18.304 23.5947L20.096 24.3627L18.304 25.1307L17.536 27.0934L16.768 25.1307L14.976 24.3627L16.768 23.5947L17.536 21.632Z" stroke="#EAE7DE" stroke-width="0.938667" stroke-linecap="round" stroke-linejoin="round"/>
<path id="Vector_16" opacity="0.85" d="M22.144 13.5253L22.912 15.488L24.704 16.256L22.912 17.024L22.144 18.9867L21.376 17.024L19.584 16.256L21.376 15.488L22.144 13.5253Z" stroke="#EAE7DE" stroke-width="0.938667" stroke-linecap="round" stroke-linejoin="round"/>
<path id="Vector_17" opacity="0.85" d="M34.6027 7.552L35.3707 9.5147L37.1627 10.2827L35.3707 11.0507L34.6027 13.0134L33.8347 11.0507L32.0427 10.2827L33.8347 9.5147L34.6027 7.552Z" stroke="#EAE7DE" stroke-width="0.938667" stroke-linecap="round" stroke-linejoin="round"/>
<path id="Vector_18" opacity="0.85" d="M44.8427 24.3627L49.9627 29.4827L61.056 17.536" stroke="#EAE7DE" stroke-width="1.19467" stroke-linecap="round" stroke-linejoin="round"/>
</g>
</svg>
